<?xml version="1.0" standalone="no"?>
<!DOCTYPE svg PUBLIC "-//W3C//DTD SVG 20010904//EN"
 "http://www.w3.org/TR/2001/REC-SVG-20010904/DTD/svg10.dtd">
<svg version="1.0" xmlns="http://www.w3.org/2000/svg"
 width="1024.000000pt" height="1024.000000pt" viewBox="0 0 1024.000000 1024.000000"
 preserveAspectRatio="xMidYMid meet">
<metadata>
Created by potrace 1.11, written by Peter Selinger 2001-2013
</metadata>
<g transform="translate(0.000000,1024.000000) scale(0.100000,-0.100000)"
fill="#000000" stroke="none">
<path d="M0 5120 l0 -5120 5120 0 5120 0 0 5120 0 5120 -5120 0 -5120 0 0
-5120z m10218 5098 c9 -9 12 -119 12 -433 0 -232 -3 -424 -6 -428 -3 -3 -45
21 -92 53 -159 107 -444 234 -592 265 -19 4 -53 13 -75 20 -75 24 -265 38
-329 25 -49 -10 -57 -15 -53 -31 3 -10 -1 -23 -9 -30 -8 -6 -14 -22 -14 -36 0
-27 -16 -62 -36 -78 -7 -5 -14 -19 -16 -30 -2 -11 -12 -21 -25 -23 -15 -2 -24
-13 -28 -33 -4 -16 -13 -29 -21 -29 -8 0 -14 -10 -14 -23 0 -16 -16 -35 -50
-61 -32 -25 -50 -46 -50 -60 0 -28 -9 -39 -42 -53 -17 -8 -28 -20 -28 -33 0
-13 -7 -20 -20 -20 -15 0 -20 -7 -20 -25 0 -14 -14 -38 -33 -57 -17 -18 -39
-47 -47 -63 -8 -17 -22 -38 -32 -48 -10 -10 -18 -24 -18 -33 0 -17 15 -24 125
-57 77 -24 201 -71 275 -105 263 -119 375 -186 474 -280 l55 -53 -39 -72 c-21
-40 -51 -94 -65 -121 -20 -36 -25 -55 -19 -75 4 -14 6 -33 5 -41 -2 -8 -42
-77 -91 -152 -77 -121 -88 -144 -94 -197 -5 -43 -2 -76 10 -116 23 -80 24
-174 1 -208 -17 -26 -19 -27 -89 -20 l-71 6 5 -31 4 -30 -80 62 c-72 55 -141
102 -376 256 -36 23 -126 72 -200 108 -111 54 -143 65 -188 66 l-53 1 -31 -55
c-16 -30 -118 -212 -225 -405 -108 -192 -342 -613 -520 -935 -424 -765 -466
-838 -535 -948 -34 -54 -58 -104 -58 -120 0 -57 72 -290 122 -392 45 -94 60
-115 147 -200 77 -76 111 -102 171 -130 41 -19 76 -35 78 -36 2 -1 -17 -30
-42 -65 -25 -35 -55 -82 -67 -104 -12 -22 -37 -61 -55 -88 -19 -26 -34 -49
-34 -52 0 -3 -23 -40 -50 -82 -50 -77 -62 -113 -37 -113 8 0 21 8 30 18 21 24
77 127 77 144 0 7 13 22 29 33 16 10 27 23 25 27 -3 5 2 11 10 14 9 3 13 10
10 15 -3 5 -1 9 4 9 5 0 9 6 9 13 0 6 25 53 56 102 31 50 60 96 65 104 4 8 14
11 20 7 9 -5 7 -14 -7 -34 -10 -15 -41 -62 -67 -105 -27 -43 -68 -108 -92
-145 -23 -37 -54 -89 -67 -117 -14 -27 -37 -66 -51 -85 -14 -19 -31 -55 -37
-79 -7 -26 -19 -46 -29 -49 -10 -2 -20 -13 -23 -23 -4 -10 -17 -22 -31 -25
-13 -3 -24 -12 -24 -20 0 -7 -11 -21 -24 -29 -14 -9 -27 -30 -30 -48 -6 -30
-47 -73 -42 -44 3 25 29 77 37 77 5 0 17 17 28 38 11 20 38 59 60 86 44 52 51
76 24 76 -23 -1 -55 -27 -79 -64 -10 -16 -20 -24 -22 -17 -5 16 -32 14 -32 -3
0 -8 6 -17 13 -19 6 -3 2 -6 -11 -6 -16 -1 -22 -6 -20 -19 1 -9 -5 -28 -15
-42 -9 -13 -17 -30 -17 -36 0 -6 -7 -17 -16 -24 -17 -15 -54 -87 -54 -106 0
-7 -10 -23 -23 -36 -22 -23 -47 -70 -47 -90 0 -6 9 -8 20 -5 11 3 20 3 20 1 0
-8 -44 -81 -64 -106 -55 -69 -73 -93 -98 -137 -15 -25 -30 -53 -34 -61 -4 -8
-16 -27 -26 -42 -10 -14 -18 -39 -18 -56 0 -45 -32 -80 -69 -74 -23 3 -31 0
-31 -11 0 -9 8 -21 18 -26 14 -9 12 -10 -14 -11 -21 0 -34 -6 -38 -18 -6 -18
-14 -32 -58 -95 -16 -22 -28 -46 -28 -54 0 -15 -26 -18 -35 -3 -3 6 -1 10 4
10 6 0 11 7 11 15 0 8 -7 15 -15 15 -8 0 -15 -7 -15 -15 0 -8 -5 -15 -12 -15
-7 0 -22 -12 -33 -26 l-20 -26 -3 28 c-1 15 -9 36 -19 46 -31 34 -61 20 -93
-45 -14 -29 -26 -26 -32 8 -7 46 -154 87 -165 46 -4 -16 -12 -18 -51 -13 -40
4 -48 2 -66 -20 -29 -34 -72 -44 -85 -19 -14 26 -29 164 -41 381 -5 102 -14
250 -20 330 -39 590 -70 1182 -70 1369 0 120 16 239 34 256 6 6 19 26 28 45
49 98 239 392 335 520 56 73 146 170 159 170 6 0 14 9 17 20 3 12 14 20 25 20
11 0 63 29 116 65 53 36 102 65 109 65 8 0 39 18 70 40 30 22 64 40 75 40 11
0 25 7 32 15 7 9 27 22 45 31 18 8 51 31 73 50 22 19 43 34 46 34 3 0 22 11
42 25 20 14 44 25 52 25 20 0 111 62 112 76 0 5 16 16 35 24 19 7 37 21 40 29
3 9 46 43 95 76 49 33 90 66 90 73 0 6 7 12 15 12 8 0 15 4 15 10 0 5 27 28
60 50 33 23 84 64 112 91 28 28 64 57 80 67 15 9 30 24 33 33 3 8 17 22 31 29
14 8 32 26 41 41 9 15 27 33 40 40 12 7 25 20 28 30 3 10 22 28 41 39 18 12
34 28 34 35 0 21 54 55 87 55 23 0 32 8 52 48 14 26 32 56 41 67 10 11 55 85
100 165 46 80 107 185 136 233 30 49 54 95 54 103 0 10 -14 14 -57 14 -89 0
-394 -29 -486 -46 -45 -8 -107 -19 -137 -24 -87 -13 -473 -100 -490 -109 -9
-5 -34 -12 -55 -15 -22 -4 -47 -13 -56 -19 -16 -12 -587 -1010 -612 -1069 -23
-54 -478 -852 -496 -869 -9 -9 -70 -37 -136 -63 -66 -27 -129 -52 -140 -56
-11 -5 -38 -16 -60 -25 -54 -23 -58 -25 -235 -95 -85 -34 -169 -69 -187 -76
-17 -8 -34 -14 -37 -14 -3 0 -25 -9 -49 -19 -23 -11 -114 -48 -202 -84 l-160
-65 -5 -2618 -5 -2619 -296 -3 c-229 -2 -299 1 -307 10 -7 9 -11 858 -14 2658
-3 2410 -5 2645 -19 2648 -15 3 -16 -103 -21 -1163 -3 -642 -10 -1171 -14
-1175 -10 -9 -1215 1178 -1214 1195 0 6 -427 438 -950 960 l-950 950 -1 545
c0 300 -2 781 -5 1070 -4 449 -7 525 -19 528 -13 3 -15 -111 -15 -880 0 -486
-3 -1499 -6 -2253 l-6 -1370 302 -385 c370 -472 876 -1121 910 -1164 14 -18
41 -54 60 -79 19 -25 152 -195 295 -378 143 -182 287 -367 320 -410 33 -42
240 -308 460 -589 220 -282 411 -527 425 -545 14 -18 46 -60 72 -93 27 -33 48
-65 48 -71 0 -17 -3532 -15 -3548 1 -9 9 -12 1157 -12 5103 0 2801 3 5095 7
5098 3 4 2297 7 5098 7 3946 0 5094 -3 5103 -12z m-2032 -3241 c57 -40 91 -93
100 -159 8 -56 18 -59 84 -27 87 42 212 -4 267 -98 36 -62 42 -157 15 -235
-15 -44 -180 -358 -197 -376 -2 -2 -48 25 -102 61 -217 142 -424 276 -526 341
-59 38 -111 74 -116 80 -7 8 18 61 72 156 87 153 188 273 237 283 76 14 118 7
166 -26z m-379 -696 c96 -49 162 -153 229 -363 50 -154 57 -154 140 -1 33 62
63 115 66 118 6 6 128 -115 128 -127 0 -7 -250 -465 -290 -532 l-17 -28 -93
278 c-117 353 -108 329 -152 396 -59 88 -122 110 -188 66 -50 -35 -70 -69 -77
-130 -5 -53 -4 -57 32 -97 27 -30 45 -41 66 -41 15 0 31 -5 34 -10 6 -11 -78
-174 -95 -185 -13 -8 -100 38 -134 71 -40 40 -76 126 -83 199 -14 154 73 318
207 391 39 21 55 24 116 20 45 -3 86 -12 111 -25z m2421 -3178 l-3 -3088
-2362 -3 c-1300 -1 -2363 1 -2363 5 0 5 343 226 763 493 419 266 917 583 1106
705 190 121 766 488 1280 816 l936 595 6 1030 c3 566 10 1119 14 1229 l7 200
35 65 c20 36 64 117 99 181 35 63 64 119 64 124 0 5 6 16 14 24 16 19 269 476
358 649 18 34 36 62 40 62 5 0 7 -1389 6 -3087z"/>
<path d="M8839 8761 c-13 -17 -37 -48 -54 -70 -21 -27 -40 -41 -65 -46 -42 -8
-60 -22 -60 -45 0 -9 -42 -83 -94 -164 -52 -81 -97 -159 -101 -174 -8 -32 -21
-42 -55 -42 -24 0 -28 -7 -48 -75 -31 -107 -28 -169 10 -181 19 -6 72 10 143
41 17 8 64 22 105 33 l75 20 0 48 c0 32 7 61 21 84 164 272 173 285 187 271 7
-7 -21 -58 -82 -151 -66 -103 -93 -154 -98 -185 -3 -27 -1 -45 6 -50 21 -13
69 15 82 48 19 49 112 206 158 267 43 57 50 89 29 135 -8 19 -8 31 0 48 14 28
42 126 42 147 0 28 -52 57 -116 65 -59 6 -61 6 -85 -24z"/>
<path d="M9151 8286 c-16 -30 -62 -103 -101 -162 -72 -109 -81 -137 -44 -142
19 -3 56 47 223 303 19 29 8 55 -23 55 -19 0 -31 -12 -55 -54z"/>
<path d="M8006 6789 c-34 -27 -76 -92 -76 -119 0 -14 22 -35 76 -70 42 -28 85
-50 95 -50 28 0 69 88 69 149 0 44 -4 52 -35 80 -43 37 -90 41 -129 10z"/>
<path d="M8324 6598 c-43 -46 -74 -101 -74 -131 0 -21 14 -35 77 -77 42 -28
83 -50 92 -48 26 5 81 124 81 176 0 38 -5 49 -36 78 -49 47 -98 47 -140 2z"/>
</g>
</svg>
